<?xml version="1.0" encoding="utf-8"?>
<!-- Generator: Adobe Illustrator 16.0.0, SVG Export Plug-In . SVG Version: 6.00 Build 0)  -->
<!DOCTYPE svg PUBLIC "-//W3C//DTD SVG 1.1//EN" "http://www.w3.org/Graphics/SVG/1.1/DTD/svg11.dtd">
<svg version="1.1" id="Layer_1" xmlns="http://www.w3.org/2000/svg" xmlns:xlink="http://www.w3.org/1999/xlink" x="0px" y="0px"
	 width="587.971px" height="203.99px" viewBox="0 0 587.971 203.99" enable-background="new 0 0 587.971 203.99"
	 xml:space="preserve">
<g>
	<g>
		<path fill="#1197F5" d="M567.361,139.206H26.567V42.654h540.794V139.206z M33.567,134.872h526.794V46.987H33.567V134.872z"/>
	</g>
</g>
<g>
	<g>
		<path fill="#1197F5" d="M323.9,114.787c-3.56,0-6.992-0.405-10.309-1.213c-3.313-0.808-6.043-1.858-8.185-3.152l4.604-10.427
			c2.021,1.172,4.274,2.112,6.763,2.818c2.482,0.709,4.897,1.062,7.241,1.062c1.374,0,2.456-0.091,3.244-0.272
			c0.788-0.183,1.363-0.444,1.729-0.789c0.361-0.342,0.546-0.757,0.546-1.243c0-0.767-0.425-1.374-1.273-1.819
			c-0.849-0.444-1.971-0.818-3.361-1.122c-1.396-0.303-2.924-0.626-4.577-0.97c-1.658-0.343-3.325-0.798-5.002-1.364
			c-1.681-0.565-3.213-1.313-4.607-2.243c-1.395-0.929-2.516-2.152-3.364-3.667c-0.85-1.516-1.271-3.405-1.271-5.668
			c0-2.627,0.734-5.021,2.213-7.184c1.475-2.162,3.677-3.89,6.604-5.184c2.934-1.293,6.578-1.94,10.943-1.94
			c2.869,0,5.698,0.303,8.487,0.91c2.789,0.606,5.294,1.536,7.518,2.789l-4.305,10.367c-2.104-1.05-4.133-1.838-6.093-2.364
			c-1.961-0.525-3.87-0.788-5.729-0.788c-1.375,0-2.466,0.121-3.271,0.364c-0.812,0.242-1.388,0.566-1.729,0.97
			c-0.344,0.405-0.516,0.849-0.516,1.334c0,0.728,0.425,1.303,1.271,1.728c0.851,0.425,1.974,0.779,3.364,1.063
			c1.396,0.283,2.931,0.586,4.608,0.91c1.676,0.324,3.344,0.768,5.001,1.333c1.654,0.566,3.183,1.314,4.577,2.243
			c1.395,0.93,2.516,2.143,3.361,3.637c0.853,1.496,1.273,3.354,1.273,5.578c0,2.587-0.737,4.962-2.213,7.125
			c-1.479,2.162-3.668,3.9-6.577,5.213C331.963,114.129,328.305,114.787,323.9,114.787z"/>
		<path fill="#1197F5" d="M356.517,113.817V82.474h-12.429V71.38h39.164v11.094h-12.429v31.343H356.517z"/>
		<path fill="#1197F5" d="M406.653,114.787c-6.511,0-11.579-1.759-15.22-5.274c-3.638-3.516-5.453-8.447-5.453-14.792V71.38h14.308
			v22.916c0,3.234,0.585,5.527,1.758,6.881c1.172,1.354,2.748,2.031,4.729,2.031c2.021,0,3.604-0.676,4.76-2.031
			c1.149-1.354,1.728-3.646,1.728-6.881V71.38h14.064v23.34c0,6.346-1.818,11.276-5.456,14.793
			C418.233,113.028,413.16,114.787,406.653,114.787z"/>
		<path fill="#1197F5" d="M433.874,113.817V71.38h20.915c4.729,0,8.891,0.859,12.488,2.577c3.597,1.718,6.402,4.152,8.427,7.305
			c2.021,3.152,3.031,6.911,3.031,11.276c0,4.406-1.014,8.195-3.031,11.367c-2.021,3.173-4.83,5.617-8.427,7.335
			c-3.601,1.718-7.763,2.577-12.488,2.577H433.874z M448.18,102.662h6.002c2.021,0,3.789-0.384,5.308-1.152
			c1.516-0.768,2.695-1.91,3.547-3.425c0.849-1.515,1.271-3.365,1.271-5.547c0-2.142-0.424-3.96-1.271-5.456
			c-0.852-1.495-2.031-2.627-3.547-3.395c-1.519-0.767-3.284-1.152-5.308-1.152h-6.002V102.662z"/>
		<path fill="#1197F5" d="M483.948,113.817V71.38h14.307v42.438H483.948L483.948,113.817z"/>
		<path fill="#1197F5" d="M527.476,114.787c-3.477,0-6.68-0.546-9.606-1.638c-2.934-1.09-5.467-2.637-7.608-4.637
			c-2.143-2-3.81-4.354-5.001-7.063c-1.19-2.708-1.789-5.658-1.789-8.852c0-3.233,0.599-6.193,1.789-8.881
			c1.191-2.688,2.858-5.032,5.001-7.032c2.145-2.001,4.681-3.547,7.608-4.638c2.93-1.091,6.113-1.637,9.549-1.637
			c3.477,0,6.668,0.546,9.578,1.637c2.91,1.091,5.436,2.637,7.578,4.638c2.142,2,3.809,4.345,5.002,7.032
			c1.188,2.688,1.788,5.648,1.788,8.881c0,3.193-0.6,6.144-1.788,8.852c-1.193,2.708-2.86,5.062-5.002,7.063
			c-2.146,2-4.668,3.545-7.578,4.637C534.084,114.242,530.911,114.787,527.476,114.787z M527.416,103.208
			c1.333,0,2.576-0.242,3.729-0.728c1.151-0.485,2.161-1.182,3.031-2.091c0.868-0.91,1.546-2.021,2.03-3.334
			c0.485-1.313,0.728-2.798,0.728-4.456c0-1.657-0.239-3.142-0.728-4.456c-0.484-1.313-1.162-2.425-2.03-3.334
			c-0.87-0.909-1.88-1.606-3.031-2.092c-1.149-0.485-2.396-0.727-3.729-0.727c-1.334,0-2.577,0.242-3.729,0.727
			c-1.152,0.485-2.163,1.183-3.031,2.092c-0.87,0.909-1.546,2.021-2.031,3.334c-0.484,1.313-0.729,2.799-0.729,4.456
			c0,1.658,0.241,3.143,0.729,4.456c0.485,1.314,1.161,2.425,2.031,3.334c0.868,0.909,1.879,1.606,3.031,2.091
			C524.838,102.965,526.082,103.208,527.416,103.208z"/>
	</g>
</g>
<g>
	<g>
		<path fill="#1197F5" d="M97.087,80.156c-1.72-1.423-4.279-2.135-7.679-2.135h-9.012v16.483h9.012c3.399,0,5.959-0.721,7.679-2.164
			c1.719-1.442,2.579-3.469,2.579-6.077C99.666,83.615,98.806,81.579,97.087,80.156z"/>
		<path fill="#1197F5" d="M141.91,80.156c-1.72-1.423-4.279-2.135-7.679-2.135h-9.012v16.542h9.012c3.399,0,5.959-0.731,7.679-2.193
			c1.719-1.462,2.579-3.499,2.579-6.107C144.489,83.615,143.629,81.579,141.91,80.156z"/>
		<path fill="#1197F5" d="M41.794,52.504v77.276h255.169V52.504H41.794z M105.298,94.148c-1.423,2.214-3.448,3.914-6.077,5.099
			c-2.629,1.186-5.78,1.779-9.457,1.779h-9.367v11.977h-7.708V71.5h17.075c3.677,0,6.828,0.593,9.457,1.779
			c2.629,1.186,4.654,2.886,6.077,5.099c1.423,2.214,2.135,4.842,2.135,7.886C107.433,89.307,106.721,91.936,105.298,94.148z
			 M144.667,113.003l-8.475-12.161c-0.531,0.026-1.05,0.066-1.605,0.066h-9.367v12.095h-7.708V71.5h17.075
			c3.677,0,6.828,0.593,9.457,1.779c2.629,1.186,4.654,2.886,6.077,5.099c1.423,2.214,2.135,4.842,2.135,7.886
			c0,3.044-0.712,5.662-2.135,7.856c-1.423,2.193-3.448,3.874-6.077,5.04c-0.196,0.087-0.416,0.148-0.618,0.229l9.542,13.616
			H144.667z M170.933,113.003h-7.708V71.5h7.708V113.003z M221.388,113.003h-6.345l-22.886-28.099v28.099h-7.648V71.5h6.344
			l22.887,28.1V71.5h7.648V113.003z M264.788,78.021h-13.756v34.981h-7.708V78.021h-13.755V71.5h35.219V78.021z"/>
	</g>
</g>
<g>
	<g>
		<path fill="#1197F5" d="M62.082,165.568V147.37h-7.156v-3.394h18.322v3.394h-7.156v18.198H62.082z"/>
		<path fill="#1197F5" d="M80.589,165.568v-21.592h8.883c1.913,0,3.552,0.309,4.92,0.926c1.367,0.617,2.421,1.501,3.162,2.652
			c0.74,1.152,1.11,2.52,1.11,4.103c0,1.584-0.37,2.945-1.11,4.087s-1.794,2.016-3.162,2.622c-1.368,0.606-3.007,0.91-4.92,0.91
			H82.81l1.789-1.82v8.112H80.589z M84.599,157.888l-1.789-1.912h6.478c1.769,0,3.1-0.38,3.995-1.142
			c0.895-0.76,1.342-1.819,1.342-3.177c0-1.377-0.447-2.437-1.342-3.177s-2.226-1.11-3.995-1.11H82.81l1.789-1.975V157.888z
			 M94.716,165.568l-5.459-7.835h4.288l5.49,7.835H94.716z"/>
		<path fill="#1197F5" d="M116.739,165.877c-2.961,0-5.28-0.833-6.956-2.499c-1.676-1.665-2.514-4.071-2.514-7.218v-12.184h4.01
			v12.03c0,2.221,0.478,3.835,1.435,4.842c0.956,1.008,2.308,1.512,4.056,1.512c1.748,0,3.094-0.504,4.041-1.512
			c0.945-1.007,1.419-2.621,1.419-4.842v-12.03h3.948v12.184c0,3.146-0.838,5.553-2.514,7.218
			C121.987,165.044,119.679,165.877,116.739,165.877z"/>
		<path fill="#1197F5" d="M140.119,162.206h12.184v3.362h-16.194v-21.592h15.762v3.362h-11.752V162.206z M139.81,152.953h10.734v3.3
			H139.81V152.953z"/>
		<path fill="#1197F5" d="M180.618,165.877c-1.687,0-3.3-0.242-4.843-0.725c-1.542-0.483-2.766-1.105-3.67-1.866l1.388-3.115
			c0.863,0.678,1.933,1.244,3.208,1.696s2.581,0.679,3.917,0.679c1.131,0,2.046-0.124,2.745-0.37
			c0.699-0.247,1.213-0.581,1.542-1.003c0.329-0.421,0.493-0.899,0.493-1.435c0-0.657-0.236-1.188-0.709-1.588
			c-0.474-0.401-1.085-0.72-1.835-0.956c-0.751-0.236-1.584-0.458-2.499-0.663c-0.915-0.206-1.831-0.447-2.745-0.726
			c-0.915-0.277-1.748-0.637-2.499-1.079c-0.751-0.442-1.362-1.033-1.835-1.773s-0.709-1.687-0.709-2.838
			c0-1.172,0.313-2.247,0.94-3.224c0.627-0.977,1.583-1.758,2.869-2.344s2.915-0.88,4.889-0.88c1.295,0,2.58,0.165,3.855,0.494
			c1.275,0.329,2.385,0.802,3.331,1.419l-1.265,3.115c-0.967-0.575-1.964-1.003-2.992-1.28c-1.029-0.277-2.016-0.416-2.961-0.416
			c-1.11,0-2.01,0.134-2.699,0.4c-0.689,0.268-1.193,0.617-1.511,1.049c-0.319,0.432-0.478,0.926-0.478,1.48
			c0,0.658,0.231,1.188,0.694,1.589c0.462,0.401,1.069,0.715,1.82,0.94c0.75,0.227,1.588,0.447,2.514,0.663s1.846,0.458,2.761,0.726
			c0.915,0.268,1.748,0.616,2.499,1.048c0.75,0.433,1.357,1.019,1.82,1.759s0.694,1.676,0.694,2.807c0,1.152-0.313,2.216-0.94,3.192
			c-0.628,0.978-1.589,1.759-2.884,2.345S182.592,165.877,180.618,165.877z"/>
		<path fill="#1197F5" d="M201.716,165.568V147.37h-7.156v-3.394h18.322v3.394h-7.156v18.198H201.716z"/>
		<path fill="#1197F5" d="M225.219,165.568v-8.544l0.895,2.468l-9.377-15.516h4.288l7.526,12.492h-2.406l7.588-12.492h3.948
			l-9.377,15.516l0.926-2.468v8.544H225.219z"/>
		<path fill="#1197F5" d="M244.313,165.568v-21.592h4.01v18.199h11.29v3.393H244.313z"/>
		<path fill="#1197F5" d="M271.117,162.206h12.184v3.362h-16.194v-21.592h15.762v3.362h-11.752V162.206z M270.808,152.953h10.734
			v3.3h-10.734V152.953z"/>
		<path fill="#1197F5" d="M304.923,165.568v-21.592h3.3l13.541,16.626h-1.635v-16.626h3.979v21.592h-3.301l-13.541-16.625h1.635
			v16.625H304.923z"/>
		<path fill="#1197F5" d="M338.235,162.206h12.184v3.362h-16.193v-21.592h15.762v3.362h-11.752V162.206z M337.927,152.953h10.734
			v3.3h-10.734V152.953z"/>
		<path fill="#1197F5" d="M365.286,165.568l-9.438-21.592h4.35l8.42,19.525h-2.498l8.514-19.525h4.01l-9.408,21.592H365.286z"/>
		<path fill="#1197F5" d="M389.252,162.206h12.184v3.362h-16.193v-21.592h15.762v3.362h-11.752V162.206z M388.943,152.953h10.734
			v3.3h-10.734V152.953z"/>
		<path fill="#1197F5" d="M410.227,165.568v-21.592h8.884c1.912,0,3.552,0.309,4.919,0.926c1.368,0.617,2.422,1.501,3.162,2.652
			c0.74,1.152,1.11,2.52,1.11,4.103c0,1.584-0.37,2.945-1.11,4.087s-1.794,2.016-3.162,2.622c-1.367,0.606-3.007,0.91-4.919,0.91
			h-6.663l1.789-1.82v8.112H410.227z M414.236,157.888l-1.789-1.912h6.478c1.769,0,3.1-0.38,3.994-1.142
			c0.895-0.76,1.342-1.819,1.342-3.177c0-1.377-0.447-2.437-1.342-3.177s-2.226-1.11-3.994-1.11h-6.478l1.789-1.975V157.888z
			 M424.354,165.568l-5.46-7.835h4.288l5.49,7.835H424.354z"/>
		<path fill="#1197F5" d="M449.924,165.568v-21.592h9.438c2.345,0,4.4,0.453,6.169,1.357c1.769,0.905,3.146,2.159,4.134,3.763
			c0.986,1.604,1.48,3.496,1.48,5.676c0,2.159-0.494,4.046-1.48,5.66c-0.987,1.614-2.365,2.874-4.134,3.778
			c-1.769,0.905-3.824,1.357-6.169,1.357H449.924z M453.934,162.176h5.244c1.624,0,3.027-0.309,4.21-0.926s2.098-1.48,2.745-2.591
			s0.972-2.406,0.972-3.887c0-1.501-0.324-2.802-0.972-3.901c-0.647-1.101-1.563-1.959-2.745-2.576
			c-1.183-0.616-2.586-0.925-4.21-0.925h-5.244V162.176z"/>
		<path fill="#1197F5" d="M479.72,165.568v-21.592h4.01v21.592H479.72z"/>
		<path fill="#1197F5" d="M497.887,162.206h12.184v3.362h-16.193v-21.592h15.762v3.362h-11.752V162.206z M497.578,152.953h10.734
			v3.3h-10.734V152.953z"/>
		<path fill="#1197F5" d="M525.555,165.877c-1.687,0-3.301-0.242-4.843-0.725c-1.542-0.483-2.766-1.105-3.671-1.866l1.389-3.115
			c0.863,0.678,1.933,1.244,3.208,1.696c1.274,0.452,2.58,0.679,3.917,0.679c1.131,0,2.046-0.124,2.745-0.37
			c0.699-0.247,1.213-0.581,1.542-1.003c0.329-0.421,0.494-0.899,0.494-1.435c0-0.657-0.237-1.188-0.71-1.588
			c-0.473-0.401-1.085-0.72-1.835-0.956c-0.751-0.236-1.584-0.458-2.498-0.663c-0.916-0.206-1.831-0.447-2.746-0.726
			c-0.915-0.277-1.748-0.637-2.498-1.079c-0.751-0.442-1.362-1.033-1.835-1.773c-0.474-0.74-0.71-1.687-0.71-2.838
			c0-1.172,0.313-2.247,0.941-3.224c0.627-0.977,1.583-1.758,2.868-2.344s2.915-0.88,4.889-0.88c1.296,0,2.581,0.165,3.855,0.494
			c1.275,0.329,2.386,0.802,3.332,1.419l-1.265,3.115c-0.967-0.575-1.964-1.003-2.992-1.28S527.117,147,526.172,147
			c-1.11,0-2.011,0.134-2.699,0.4c-0.689,0.268-1.192,0.617-1.512,1.049c-0.318,0.432-0.478,0.926-0.478,1.48
			c0,0.658,0.231,1.188,0.693,1.589c0.463,0.401,1.069,0.715,1.82,0.94c0.75,0.227,1.589,0.447,2.514,0.663
			c0.926,0.216,1.846,0.458,2.761,0.726s1.748,0.616,2.498,1.048c0.751,0.433,1.357,1.019,1.82,1.759s0.694,1.676,0.694,2.807
			c0,1.152-0.314,2.216-0.941,3.192c-0.627,0.978-1.588,1.759-2.884,2.345S527.528,165.877,525.555,165.877z"/>
	</g>
</g>
</svg>
