<?xml version="1.0" encoding="utf-8"?>
<!-- Generator: Adobe Illustrator 16.0.0, SVG Export Plug-In . SVG Version: 6.00 Build 0)  -->
<!DOCTYPE svg PUBLIC "-//W3C//DTD SVG 1.1//EN" "http://www.w3.org/Graphics/SVG/1.1/DTD/svg11.dtd">
<svg version="1.1" id="Layer_1" xmlns="http://www.w3.org/2000/svg" xmlns:xlink="http://www.w3.org/1999/xlink" x="0px" y="0px"
	 width="125.525px" height="96.551px" viewBox="23 17 125.525 96.551" enable-background="new 23 17 125.525 96.551"
	 xml:space="preserve">
<g>
	<path fill="#1197F5" d="M113.807,89.133c-3.559,0-6.992-0.405-10.309-1.213c-3.313-0.81-6.043-1.858-8.186-3.152l4.605-10.427
		c2.02,1.172,4.273,2.111,6.762,2.818c2.482,0.707,4.898,1.062,7.242,1.062c1.373,0,2.455-0.091,3.244-0.272
		c0.787-0.183,1.363-0.443,1.729-0.787c0.361-0.344,0.545-0.758,0.545-1.244c0-0.766-0.424-1.373-1.271-1.818
		c-0.85-0.443-1.971-0.818-3.361-1.122c-1.396-0.303-2.924-0.626-4.578-0.97c-1.656-0.344-3.324-0.799-5.002-1.364
		c-1.68-0.565-3.213-1.313-4.605-2.243c-1.396-0.929-2.518-2.152-3.365-3.666c-0.85-1.517-1.27-3.406-1.27-5.668
		c0-2.627,0.732-5.021,2.213-7.185c1.475-2.162,3.676-3.89,6.604-5.185c2.934-1.293,6.578-1.939,10.943-1.939
		c2.869,0,5.697,0.303,8.486,0.91c2.789,0.605,5.293,1.535,7.518,2.789l-4.305,10.367c-2.104-1.051-4.133-1.838-6.094-2.365
		c-1.961-0.524-3.869-0.787-5.729-0.787c-1.375,0-2.465,0.121-3.271,0.363c-0.811,0.242-1.387,0.566-1.729,0.971
		c-0.344,0.404-0.516,0.85-0.516,1.334c0,0.729,0.426,1.303,1.271,1.729c0.85,0.424,1.973,0.778,3.363,1.063
		c1.396,0.283,2.932,0.586,4.607,0.91s3.346,0.768,5.002,1.332c1.654,0.566,3.184,1.314,4.576,2.244
		c1.396,0.93,2.518,2.143,3.361,3.637c0.854,1.496,1.273,3.354,1.273,5.578c0,2.586-0.736,4.961-2.213,7.123
		c-1.479,2.164-3.668,3.9-6.578,5.213C121.872,88.474,118.212,89.133,113.807,89.133z"/>
</g>
<g>
	<polygon fill="#1197F5" points="126.253,17 126.253,21.332 141.524,21.332 141.524,109.218 126.253,109.218 126.253,113.551 
		148.524,113.551 148.524,17 	"/>
	<polygon fill="#1197F5" points="142.053,109.218 30,109.218 30,21.332 142.053,21.332 142.053,17 23,17 23,113.551 
		142.053,113.551 	"/>
</g>
<g>
	<path fill="#1197F5" d="M71.659,53.819c-1.719-1.422-4.276-2.133-7.674-2.133h-9.007v16.473h9.007c3.397,0,5.955-0.721,7.674-2.163
		c1.718-1.441,2.577-3.466,2.577-6.073C74.236,57.276,73.377,55.242,71.659,53.819z"/>
	<path fill="#1197F5" d="M38.227,26.849v77.275h48.938V26.849H38.227z M79.865,67.803c-1.422,2.213-3.446,3.911-6.073,5.096
		c-2.627,1.186-5.777,1.777-9.451,1.777h-9.362v11.97h-7.702V45.168h17.064c3.674,0,6.824,0.593,9.451,1.778
		s4.651,2.884,6.073,5.096c1.423,2.213,2.134,4.84,2.134,7.881C81.999,62.964,81.288,65.591,79.865,67.803z"/>
</g>
</svg>
