<?xml version="1.0" encoding="utf-8"?>
<!-- Generator: Adobe Illustrator 16.0.0, SVG Export Plug-In . SVG Version: 6.00 Build 0)  -->
<!DOCTYPE svg PUBLIC "-//W3C//DTD SVG 1.1//EN" "http://www.w3.org/Graphics/SVG/1.1/DTD/svg11.dtd">
<svg version="1.1" id="Layer_1" xmlns="http://www.w3.org/2000/svg" xmlns:xlink="http://www.w3.org/1999/xlink" x="0px" y="0px"
	 width="125.525px" height="96.552px" viewBox="26.567 53.719 125.525 96.552"
	 enable-background="new 26.567 53.719 125.525 96.552" xml:space="preserve">
<g>
	<path fill="#9055A2" d="M117.375,125.853c-3.56,0-6.992-0.405-10.309-1.213c-3.313-0.809-6.043-1.858-8.185-3.152l4.604-10.427
		c2.021,1.172,4.274,2.112,6.763,2.819c2.482,0.707,4.897,1.061,7.241,1.061c1.374,0,2.456-0.091,3.244-0.273
		c0.788-0.182,1.363-0.443,1.729-0.787c0.361-0.344,0.546-0.758,0.546-1.244c0-0.766-0.425-1.373-1.273-1.818
		c-0.849-0.443-1.971-0.818-3.361-1.122c-1.396-0.303-2.924-0.626-4.577-0.97c-1.658-0.344-3.325-0.799-5.002-1.364
		c-1.681-0.565-3.213-1.313-4.607-2.243c-1.395-0.929-2.516-2.152-3.364-3.667c-0.85-1.516-1.271-3.405-1.271-5.668
		c0-2.627,0.734-5.021,2.213-7.184c1.475-2.162,3.677-3.89,6.604-5.184c2.934-1.293,6.578-1.94,10.943-1.94
		c2.869,0,5.698,0.303,8.487,0.91c2.789,0.606,5.294,1.536,7.518,2.789l-4.305,10.367c-2.104-1.05-4.133-1.838-6.093-2.364
		c-1.961-0.525-3.87-0.788-5.729-0.788c-1.375,0-2.466,0.121-3.271,0.364c-0.812,0.242-1.388,0.566-1.729,0.97
		c-0.344,0.405-0.516,0.849-0.516,1.334c0,0.728,0.425,1.303,1.271,1.728c0.851,0.425,1.974,0.779,3.364,1.063
		c1.396,0.283,2.931,0.586,4.608,0.91c1.676,0.324,3.344,0.768,5.001,1.333c1.654,0.566,3.183,1.314,4.577,2.243
		c1.395,0.93,2.516,2.143,3.361,3.637c0.853,1.496,1.273,3.354,1.273,5.578c0,2.586-0.737,4.961-2.213,7.123
		c-1.479,2.164-3.668,3.901-6.577,5.213C125.438,125.194,121.779,125.853,117.375,125.853z"/>
</g>
<path fill="#9055A2" d="M90.731,63.569H41.794v77.276h48.938V63.569z M75.822,118.599c-2.344,0.992-4.95,1.486-7.821,1.486
	c-2.64,0-5.09-0.438-7.35-1.312c-2.26-0.874-4.224-2.11-5.89-3.712c-1.667-1.6-2.962-3.489-3.885-5.667
	c-0.924-2.179-1.386-4.554-1.386-7.127c0-2.574,0.461-4.949,1.386-7.127c0.923-2.178,2.227-4.066,3.91-5.667
	c1.683-1.6,3.646-2.837,5.89-3.712c2.244-0.874,4.702-1.312,7.375-1.312c2.837,0,5.427,0.487,7.771,1.46
	c2.342,0.974,4.322,2.417,5.939,4.331l-4.157,3.91c-1.254-1.353-2.656-2.367-4.207-3.044c-1.551-0.676-3.234-1.015-5.048-1.015
	c-1.815,0-3.473,0.297-4.974,0.891c-1.502,0.594-2.805,1.436-3.91,2.524c-1.106,1.089-1.964,2.375-2.574,3.86
	c-0.611,1.485-0.916,3.118-0.916,4.9c0,1.781,0.305,3.415,0.916,4.9c0.61,1.484,1.468,2.771,2.574,3.859
	c1.105,1.089,2.408,1.93,3.91,2.523c1.501,0.595,3.159,0.892,4.974,0.892c1.814,0,3.497-0.338,5.048-1.015
	c1.551-0.676,2.953-1.709,4.207-3.094l4.157,3.959C80.144,116.173,78.164,117.608,75.822,118.599z"/>
<g>
	<polygon fill="#9055A2" points="129.819,53.719 129.819,58.052 145.092,58.052 145.092,145.938 129.819,145.938 129.819,150.271 
		152.092,150.271 152.092,53.719 	"/>
	<polygon fill="#9055A2" points="145.62,145.938 33.567,145.938 33.567,58.052 145.62,58.052 145.62,53.719 26.567,53.719 
		26.567,150.271 145.62,150.271 	"/>
</g>
</svg>
